<mxfile host="app.diagrams.net" agent="Mozilla/5.0 (Windows NT 10.0; Win64; x64) AppleWebKit/537.36 (KHTML, like Gecko) Chrome/131.0.0.0 Safari/537.36" version="25.0.3">
  <diagram name="Page-1" id="TdH6wVxQPX9PQOFt1FXp">
    <mxGraphModel dx="2263" dy="2022" grid="1" gridSize="10" guides="1" tooltips="1" connect="1" arrows="1" fold="1" page="1" pageScale="1" pageWidth="827" pageHeight="1169" math="0" shadow="0">
      <root>
        <mxCell id="0" />
        <mxCell id="1" parent="0" />
        <mxCell id="dRtfOaIlZtqkCpRHz2Zz-1" value="" style="rounded=0;whiteSpace=wrap;html=1;fillColor=none;strokeColor=none;" vertex="1" parent="1">
          <mxGeometry x="-320" y="-410" width="1360" height="1000" as="geometry" />
        </mxCell>
        <mxCell id="PrN7Fz2PnRNvnp8qS3L2-14" value="Local" style="fillColor=none;strokeColor=#147EBA;dashed=1;verticalAlign=top;fontStyle=0;fontColor=#147EBA;whiteSpace=wrap;html=1;" parent="1" vertex="1">
          <mxGeometry x="-210" y="-330" width="600" height="840" as="geometry" />
        </mxCell>
        <mxCell id="PrN7Fz2PnRNvnp8qS3L2-13" value="DMZ" style="fillColor=#d5e8d4;strokeColor=none;dashed=1;verticalAlign=top;fontStyle=0;whiteSpace=wrap;html=1;" parent="1" vertex="1">
          <mxGeometry x="-90" y="40" width="360" height="380" as="geometry" />
        </mxCell>
        <mxCell id="PrN7Fz2PnRNvnp8qS3L2-12" value="Private" style="fillColor=#dae8fc;strokeColor=none;dashed=1;verticalAlign=top;fontStyle=0;whiteSpace=wrap;html=1;" parent="1" vertex="1">
          <mxGeometry x="-90" y="-270" width="370" height="230" as="geometry" />
        </mxCell>
        <mxCell id="PrN7Fz2PnRNvnp8qS3L2-2" value="Server Reverse Proxy&lt;div&gt;(10.1.2.12)&lt;/div&gt;" style="verticalLabelPosition=bottom;sketch=0;aspect=fixed;html=1;verticalAlign=top;strokeColor=none;align=center;outlineConnect=0;shape=mxgraph.citrix.proxy_server;" parent="1" vertex="1">
          <mxGeometry x="100" y="180" width="76.5" height="90" as="geometry" />
        </mxCell>
        <mxCell id="PrN7Fz2PnRNvnp8qS3L2-3" value="&lt;div&gt;Server WEB&lt;/div&gt;&amp;nbsp;(10.1.2.11)" style="verticalLabelPosition=bottom;sketch=0;aspect=fixed;html=1;verticalAlign=top;strokeColor=none;align=center;outlineConnect=0;shape=mxgraph.citrix.web_server;" parent="1" vertex="1">
          <mxGeometry x="-50" y="250" width="76.5" height="90" as="geometry" />
        </mxCell>
        <mxCell id="PrN7Fz2PnRNvnp8qS3L2-5" value="&lt;div&gt;Server&amp;nbsp;&lt;span style=&quot;background-color: initial;&quot;&gt;DNS&lt;/span&gt;&lt;/div&gt;&amp;nbsp;(10.1.2.10)" style="verticalLabelPosition=bottom;sketch=0;aspect=fixed;html=1;verticalAlign=top;strokeColor=none;align=center;outlineConnect=0;shape=mxgraph.citrix.dns_server;" parent="1" vertex="1">
          <mxGeometry x="-50" y="100" width="76.5" height="92.5" as="geometry" />
        </mxCell>
        <mxCell id="PrN7Fz2PnRNvnp8qS3L2-10" value="&lt;font color=&quot;#000000&quot;&gt;User (10.1.1.10)&lt;/font&gt;" style="fontColor=#0066CC;verticalAlign=top;verticalLabelPosition=bottom;labelPosition=center;align=center;html=1;outlineConnect=0;fillColor=#CCCCCC;strokeColor=#6881B3;gradientColor=none;gradientDirection=north;strokeWidth=2;shape=mxgraph.networks.pc;" parent="1" vertex="1">
          <mxGeometry x="45" y="-200" width="100" height="70" as="geometry" />
        </mxCell>
        <mxCell id="PrN7Fz2PnRNvnp8qS3L2-27" style="edgeStyle=orthogonalEdgeStyle;rounded=0;orthogonalLoop=1;jettySize=auto;html=1;startArrow=classic;startFill=1;" parent="1" source="PrN7Fz2PnRNvnp8qS3L2-7" target="PrN7Fz2PnRNvnp8qS3L2-25" edge="1">
          <mxGeometry relative="1" as="geometry" />
        </mxCell>
        <mxCell id="PrN7Fz2PnRNvnp8qS3L2-28" value="10.0.0.4" style="edgeLabel;html=1;align=center;verticalAlign=middle;resizable=0;points=[];" parent="PrN7Fz2PnRNvnp8qS3L2-27" vertex="1" connectable="0">
          <mxGeometry x="-0.6565" y="2" relative="1" as="geometry">
            <mxPoint as="offset" />
          </mxGeometry>
        </mxCell>
        <mxCell id="PrN7Fz2PnRNvnp8qS3L2-7" value="Router + DHCP" style="verticalLabelPosition=bottom;sketch=0;aspect=fixed;html=1;verticalAlign=top;strokeColor=none;align=center;outlineConnect=0;shape=mxgraph.citrix.router;" parent="1" vertex="1">
          <mxGeometry x="350" y="-40" width="115.27" height="76.5" as="geometry" />
        </mxCell>
        <mxCell id="PrN7Fz2PnRNvnp8qS3L2-16" value="" style="endArrow=classic;html=1;rounded=0;exitX=0.989;exitY=0.835;exitDx=0;exitDy=0;exitPerimeter=0;startArrow=classic;startFill=1;" parent="1" source="PrN7Fz2PnRNvnp8qS3L2-12" target="PrN7Fz2PnRNvnp8qS3L2-7" edge="1">
          <mxGeometry width="50" height="50" relative="1" as="geometry">
            <mxPoint x="270" y="-110" as="sourcePoint" />
            <mxPoint x="320" y="-160" as="targetPoint" />
          </mxGeometry>
        </mxCell>
        <mxCell id="PrN7Fz2PnRNvnp8qS3L2-17" value="10.1.1.1" style="edgeLabel;html=1;align=center;verticalAlign=middle;resizable=0;points=[];" parent="PrN7Fz2PnRNvnp8qS3L2-16" vertex="1" connectable="0">
          <mxGeometry x="0.4205" y="1" relative="1" as="geometry">
            <mxPoint x="1" y="-2" as="offset" />
          </mxGeometry>
        </mxCell>
        <mxCell id="PrN7Fz2PnRNvnp8qS3L2-19" value="" style="endArrow=classic;html=1;rounded=0;startArrow=classic;startFill=1;" parent="1" source="PrN7Fz2PnRNvnp8qS3L2-13" target="PrN7Fz2PnRNvnp8qS3L2-7" edge="1">
          <mxGeometry width="50" height="50" relative="1" as="geometry">
            <mxPoint x="220" y="130" as="sourcePoint" />
            <mxPoint x="270" y="80" as="targetPoint" />
          </mxGeometry>
        </mxCell>
        <mxCell id="PrN7Fz2PnRNvnp8qS3L2-20" value="10.1.2.1" style="edgeLabel;html=1;align=center;verticalAlign=middle;resizable=0;points=[];" parent="PrN7Fz2PnRNvnp8qS3L2-19" vertex="1" connectable="0">
          <mxGeometry x="0.7685" relative="1" as="geometry">
            <mxPoint x="-15" y="6" as="offset" />
          </mxGeometry>
        </mxCell>
        <mxCell id="PrN7Fz2PnRNvnp8qS3L2-25" value="Public" style="rounded=0;arcSize=10;dashed=1;strokeColor=none;fillColor=#ffe6cc;dashPattern=8 4;strokeWidth=2;align=center;verticalAlign=top;" parent="1" vertex="1">
          <mxGeometry x="650" y="-126.5" width="280" height="249.5" as="geometry" />
        </mxCell>
        <mxCell id="PrN7Fz2PnRNvnp8qS3L2-29" value="Antoine (10.0.0.2)" style="verticalLabelPosition=bottom;sketch=0;aspect=fixed;html=1;verticalAlign=top;strokeColor=none;align=center;outlineConnect=0;shape=mxgraph.citrix.router;" parent="1" vertex="1">
          <mxGeometry x="707" y="-100" width="75.34" height="50" as="geometry" />
        </mxCell>
        <mxCell id="PrN7Fz2PnRNvnp8qS3L2-30" value="&lt;div&gt;CÃ©lian (10.0.0.3)&lt;/div&gt;" style="verticalLabelPosition=bottom;sketch=0;aspect=fixed;html=1;verticalAlign=top;strokeColor=none;align=center;outlineConnect=0;shape=mxgraph.citrix.router;" parent="1" vertex="1">
          <mxGeometry x="830" y="-70" width="75.34" height="50" as="geometry" />
        </mxCell>
        <mxCell id="PrN7Fz2PnRNvnp8qS3L2-31" value="Julien (10.0.0.5)" style="verticalLabelPosition=bottom;sketch=0;aspect=fixed;html=1;verticalAlign=top;strokeColor=none;align=center;outlineConnect=0;shape=mxgraph.citrix.router;" parent="1" vertex="1">
          <mxGeometry x="707" y="20" width="75.34" height="50" as="geometry" />
        </mxCell>
      </root>
    </mxGraphModel>
  </diagram>
</mxfile>
